<svg xmlns="http://www.w3.org/2000/svg" viewBox="40 124 300 300"><rect x="40" y="124" width="300" height="300" fill="#000"/><g fill="none" stroke="#e34624" stroke-width="7" stroke-linejoin="round" stroke-linecap="round"><polygon points="170,140 195,172 190,203 162,215 143,188 148,158"/><polyline points="170,140 162,215 154,262 157,316 161,408"/><polyline points="154,262 195,290 231,268 265,277 157,316"/><polyline points="154,262 127,347 114,383"/><polyline points="146,368 161,408"/></g><g fill="#e34624"><circle cx="170" cy="140" r="8"/><circle cx="154" cy="262" r="8"/><circle cx="231" cy="268" r="8"/><circle cx="157" cy="316" r="8"/><circle cx="114" cy="383" r="8"/></g></svg>
